<mxfile host="app.diagrams.net" modified="2023-01-30T06:09:57.731Z" agent="5.0 (Windows NT 10.0; Win64; x64) AppleWebKit/537.36 (KHTML, like Gecko) Chrome/109.0.0.0 Safari/537.36 Edg/109.0.1518.70" version="20.8.5" etag="u8-xH65pXV3e29d_mMsh" type="github">
  <diagram id="UI8Tqbnpyiyq8gxbcr4t" name="페이지-1">
    <mxGraphModel dx="2012" dy="836" grid="1" gridSize="10" guides="1" tooltips="1" connect="1" arrows="1" fold="1" page="1" pageScale="1" pageWidth="827" pageHeight="1169" math="0" shadow="0">
      <root>
        <mxCell id="0" />
        <mxCell id="1" parent="0" />
        <mxCell id="RHHGZuA_F6H2dyW4wV6K-24" value="" style="rounded=1;whiteSpace=wrap;html=1;fontSize=16;fillColor=#f5f5f5;strokeColor=#666666;fontColor=#333333;" vertex="1" parent="1">
          <mxGeometry x="493.25" y="535" width="186.75" height="60" as="geometry" />
        </mxCell>
        <mxCell id="RHHGZuA_F6H2dyW4wV6K-1" value="" style="rounded=1;whiteSpace=wrap;html=1;" vertex="1" parent="1">
          <mxGeometry x="79" y="230" width="670" height="250" as="geometry" />
        </mxCell>
        <mxCell id="RHHGZuA_F6H2dyW4wV6K-20" style="edgeStyle=orthogonalEdgeStyle;rounded=0;orthogonalLoop=1;jettySize=auto;html=1;exitX=0.5;exitY=1;exitDx=0;exitDy=0;fontSize=16;fontColor=#171617;" edge="1" parent="1" source="RHHGZuA_F6H2dyW4wV6K-2">
          <mxGeometry relative="1" as="geometry">
            <mxPoint x="640" y="540" as="targetPoint" />
            <Array as="points">
              <mxPoint x="310" y="460" />
              <mxPoint x="640" y="460" />
            </Array>
          </mxGeometry>
        </mxCell>
        <mxCell id="RHHGZuA_F6H2dyW4wV6K-2" value="" style="rounded=0;whiteSpace=wrap;html=1;" vertex="1" parent="1">
          <mxGeometry x="250" y="280" width="120" height="130" as="geometry" />
        </mxCell>
        <mxCell id="RHHGZuA_F6H2dyW4wV6K-3" value="" style="shape=image;verticalLabelPosition=bottom;labelBackgroundColor=default;verticalAlign=top;aspect=fixed;imageAspect=0;image=https://www.freecodecamp.org/news/content/images/2021/09/ansble.png;" vertex="1" parent="1">
          <mxGeometry x="255" y="309.25" width="110" height="71.5" as="geometry" />
        </mxCell>
        <mxCell id="RHHGZuA_F6H2dyW4wV6K-4" value="Kubernetes" style="rounded=0;whiteSpace=wrap;html=1;fillColor=#ffe6cc;strokeColor=#d79b00;fontColor=#d62929;" vertex="1" parent="1">
          <mxGeometry x="320" y="370" width="80" height="30" as="geometry" />
        </mxCell>
        <mxCell id="RHHGZuA_F6H2dyW4wV6K-10" value=".yml" style="text;html=1;strokeColor=#6c8ebf;fillColor=#dae8fc;align=center;verticalAlign=middle;whiteSpace=wrap;rounded=0;fontColor=#504b9b;" vertex="1" parent="1">
          <mxGeometry x="330" y="270" width="60" height="30" as="geometry" />
        </mxCell>
        <mxCell id="RHHGZuA_F6H2dyW4wV6K-11" value="" style="shape=image;verticalLabelPosition=bottom;labelBackgroundColor=default;verticalAlign=top;aspect=fixed;imageAspect=0;image=https://d1.awsstatic.com/acs/characters/Logos/Docker-Logo_Horizontel_279x131.b8a5c41e56b77706656d61080f6a0217a3ba356d.png;" vertex="1" parent="1">
          <mxGeometry x="210" y="260" width="106.49" height="50" as="geometry" />
        </mxCell>
        <mxCell id="RHHGZuA_F6H2dyW4wV6K-12" value="Docker Engine" style="text;html=1;strokeColor=none;fillColor=none;align=center;verticalAlign=middle;whiteSpace=wrap;rounded=0;fontColor=#504b9b;fontSize=16;" vertex="1" parent="1">
          <mxGeometry x="50" y="190" width="130" height="50" as="geometry" />
        </mxCell>
        <mxCell id="RHHGZuA_F6H2dyW4wV6K-13" value="" style="rounded=0;whiteSpace=wrap;html=1;" vertex="1" parent="1">
          <mxGeometry x="500" y="280" width="120" height="130" as="geometry" />
        </mxCell>
        <mxCell id="RHHGZuA_F6H2dyW4wV6K-14" value="" style="shape=image;verticalLabelPosition=bottom;labelBackgroundColor=default;verticalAlign=top;aspect=fixed;imageAspect=0;image=https://d1.awsstatic.com/acs/characters/Logos/Docker-Logo_Horizontel_279x131.b8a5c41e56b77706656d61080f6a0217a3ba356d.png;" vertex="1" parent="1">
          <mxGeometry x="450" y="260" width="106.49" height="50" as="geometry" />
        </mxCell>
        <mxCell id="RHHGZuA_F6H2dyW4wV6K-16" value="" style="rounded=1;whiteSpace=wrap;html=1;fontSize=16;fontColor=#504b9b;" vertex="1" parent="1">
          <mxGeometry x="513.38" y="315" width="93.24" height="60" as="geometry" />
        </mxCell>
        <mxCell id="RHHGZuA_F6H2dyW4wV6K-15" value="" style="shape=image;verticalLabelPosition=bottom;labelBackgroundColor=default;verticalAlign=top;aspect=fixed;imageAspect=0;image=https://d1.awsstatic.com/acs/characters/Logos/Docker-Logo_Horizontel_279x131.b8a5c41e56b77706656d61080f6a0217a3ba356d.png;" vertex="1" parent="1">
          <mxGeometry x="506.76" y="320" width="106.49" height="50" as="geometry" />
        </mxCell>
        <mxCell id="RHHGZuA_F6H2dyW4wV6K-18" value="ansible-playbook -i ./k8s/hosts [playbook file]" style="text;html=1;strokeColor=none;fillColor=none;align=center;verticalAlign=middle;whiteSpace=wrap;rounded=0;fontSize=16;fontColor=#171617;" vertex="1" parent="1">
          <mxGeometry x="290" y="490" width="340" height="30" as="geometry" />
        </mxCell>
        <mxCell id="RHHGZuA_F6H2dyW4wV6K-21" value="" style="shape=image;verticalLabelPosition=bottom;labelBackgroundColor=default;verticalAlign=top;aspect=fixed;imageAspect=0;image=https://kubernetes.io/images/favicon.png;" vertex="1" parent="1">
          <mxGeometry x="616" y="540" width="50" height="50" as="geometry" />
        </mxCell>
        <mxCell id="RHHGZuA_F6H2dyW4wV6K-22" value="" style="sketch=0;aspect=fixed;pointerEvents=1;shadow=0;dashed=0;html=1;strokeColor=none;labelPosition=center;verticalLabelPosition=bottom;verticalAlign=top;align=center;fillColor=#19191a;shape=mxgraph.azure.computer;fontSize=16;fontColor=#0D0C0D;" vertex="1" parent="1">
          <mxGeometry x="560" y="546.5" width="41.11" height="37" as="geometry" />
        </mxCell>
        <mxCell id="RHHGZuA_F6H2dyW4wV6K-23" value="" style="sketch=0;aspect=fixed;pointerEvents=1;shadow=0;dashed=0;html=1;strokeColor=none;labelPosition=center;verticalLabelPosition=bottom;verticalAlign=top;align=center;fillColor=#19191a;shape=mxgraph.mscae.enterprise.windows_server;fontSize=16;fontColor=#0D0C0D;" vertex="1" parent="1">
          <mxGeometry x="506.76" y="545" width="30.81" height="39.5" as="geometry" />
        </mxCell>
      </root>
    </mxGraphModel>
  </diagram>
</mxfile>
